{
    "asset" : {
        "generator" : "Khronos glTF Blender I/O v3.4.50",
        "version" : "2.0"
    },
    "scene" : 0,
    "scenes" : [
        {
            "name" : "Scene",
            "nodes" : [
                0,
                1,
                2,
                3
            ]
        }
    ],
    "nodes" : [
        {
            "mesh" : 0,
            "name" : "Brain_Part_02",
            "rotation" : [
                0.7117129564285278,
                0,
                0,
                0.7024704813957214
            ],
            "scale" : [
                3.586127758026123,
                3.5861282348632812,
                3.5861282348632812
            ],
            "translation" : [
                -0.7934076189994812,
                0.5521368980407715,
                -0.09638476371765137
            ]
        },
        {
            "mesh" : 1,
            "name" : "Brain_Part_04",
            "rotation" : [
                0.7117129564285278,
                0,
                0,
                0.7024704813957214
            ],
            "scale" : [
                3.586127758026123,
                3.5861282348632812,
                3.5861282348632812
            ],
            "translation" : [
                0.04578191041946411,
                1.8733010292053223,
                0.7484493255615234
            ]
        },
        {
            "mesh" : 2,
            "name" : "Brain_Part_05",
            "rotation" : [
                0.7117129564285278,
                0,
                0,
                0.7024704813957214
            ],
            "scale" : [
                3.586127758026123,
                3.5861282348632812,
                3.5861282348632812
            ],
            "translation" : [
                -0.7677605152130127,
                1.2829437255859375,
                0.8894329071044922
            ]
        },
        {
            "mesh" : 3,
            "name" : "Brain_Part_06",
            "rotation" : [
                0.7117129564285278,
                0,
                0,
                0.7024704813957214
            ],
            "scale" : [
                3.586127758026123,
                3.5861282348632812,
                3.5861282348632812
            ],
            "translation" : [
                -1.4918196201324463,
                1.8733010292053223,
                0.7484493255615234
            ]
        }
    ],
    "materials" : [
        {
            "doubleSided" : true,
            "name" : "BRAIN_TEXTURE_blinn2",
            "pbrMetallicRoughness" : {
                "baseColorFactor" : [
                    0.7484014630317688,
                    0.23608838021755219,
                    0.2950500547885895,
                    1
                ],
                "metallicFactor" : 0,
                "roughnessFactor" : 0.5
            }
        }
    ],
    "meshes" : [
        {
            "name" : "Untitled.005",
            "primitives" : [
                {
                    "attributes" : {
                        "POSITION" : 0,
                        "TEXCOORD_0" : 1,
                        "NORMAL" : 2
                    },
                    "indices" : 3,
                    "material" : 0
                }
            ]
        },
        {
            "name" : "Untitled.003",
            "primitives" : [
                {
                    "attributes" : {
                        "POSITION" : 4,
                        "TEXCOORD_0" : 5,
                        "TEXCOORD_1" : 6,
                        "NORMAL" : 7
                    },
                    "indices" : 8,
                    "material" : 0
                }
            ]
        },
        {
            "name" : "Untitled.004",
            "primitives" : [
                {
                    "attributes" : {
                        "POSITION" : 9,
                        "TEXCOORD_0" : 10,
                        "NORMAL" : 11
                    },
                    "indices" : 12,
                    "material" : 0
                }
            ]
        },
        {
            "name" : "Untitled.002",
            "primitives" : [
                {
                    "attributes" : {
                        "POSITION" : 13,
                        "TEXCOORD_0" : 14,
                        "TEXCOORD_1" : 15,
                        "NORMAL" : 16
                    },
                    "indices" : 17,
                    "material" : 0
                }
            ]
        }
    ],
    "accessors" : [
        {
            "bufferView" : 0,
            "componentType" : 5126,
            "count" : 6905,
            "max" : [
                0.4303946793079376,
                0.2161475419998169,
                0.14938056468963623
            ],
            "min" : [
                -0.4303993880748749,
                -0.24971187114715576,
                -0.22577202320098877
            ],
            "type" : "VEC3"
        },
        {
            "bufferView" : 1,
            "componentType" : 5126,
            "count" : 6905,
            "type" : "VEC2"
        },
        {
            "bufferView" : 2,
            "componentType" : 5126,
            "count" : 6905,
            "type" : "VEC3"
        },
        {
            "bufferView" : 3,
            "componentType" : 5123,
            "count" : 40734,
            "type" : "SCALAR"
        },
        {
            "bufferView" : 4,
            "componentType" : 5126,
            "count" : 19991,
            "max" : [
                0.3148539662361145,
                0.6792975068092346,
                0.37723761796951294
            ],
            "min" : [
                -0.2207905501127243,
                -0.6369249224662781,
                -0.46005791425704956
            ],
            "type" : "VEC3"
        },
        {
            "bufferView" : 5,
            "componentType" : 5126,
            "count" : 19991,
            "type" : "VEC2"
        },
        {
            "bufferView" : 6,
            "componentType" : 5126,
            "count" : 19991,
            "type" : "VEC2"
        },
        {
            "bufferView" : 7,
            "componentType" : 5126,
            "count" : 19991,
            "type" : "VEC3"
        },
        {
            "bufferView" : 8,
            "componentType" : 5123,
            "count" : 114666,
            "type" : "SCALAR"
        },
        {
            "bufferView" : 9,
            "componentType" : 5126,
            "count" : 1664,
            "max" : [
                0.3363898992538452,
                0.29457029700279236,
                0.499733567237854
            ],
            "min" : [
                -0.3363853693008423,
                -0.2597934305667877,
                -0.316916823387146
            ],
            "type" : "VEC3"
        },
        {
            "bufferView" : 10,
            "componentType" : 5126,
            "count" : 1664,
            "type" : "VEC2"
        },
        {
            "bufferView" : 11,
            "componentType" : 5126,
            "count" : 1664,
            "type" : "VEC3"
        },
        {
            "bufferView" : 12,
            "componentType" : 5123,
            "count" : 9714,
            "type" : "SCALAR"
        },
        {
            "bufferView" : 13,
            "componentType" : 5126,
            "count" : 19991,
            "max" : [
                0.2207905501127243,
                0.6792975068092346,
                0.37723761796951294
            ],
            "min" : [
                -0.3148539662361145,
                -0.6369249224662781,
                -0.46005791425704956
            ],
            "type" : "VEC3"
        },
        {
            "bufferView" : 14,
            "componentType" : 5126,
            "count" : 19991,
            "type" : "VEC2"
        },
        {
            "bufferView" : 15,
            "componentType" : 5126,
            "count" : 19991,
            "type" : "VEC2"
        },
        {
            "bufferView" : 16,
            "componentType" : 5126,
            "count" : 19991,
            "type" : "VEC3"
        },
        {
            "bufferView" : 17,
            "componentType" : 5123,
            "count" : 114666,
            "type" : "SCALAR"
        }
    ],
    "bufferViews" : [
        {
            "buffer" : 0,
            "byteLength" : 82860,
            "byteOffset" : 0,
            "target" : 34962
        },
        {
            "buffer" : 0,
            "byteLength" : 55240,
            "byteOffset" : 82860,
            "target" : 34962
        },
        {
            "buffer" : 0,
            "byteLength" : 82860,
            "byteOffset" : 138100,
            "target" : 34962
        },
        {
            "buffer" : 0,
            "byteLength" : 81468,
            "byteOffset" : 220960,
            "target" : 34963
        },
        {
            "buffer" : 0,
            "byteLength" : 239892,
            "byteOffset" : 302428,
            "target" : 34962
        },
        {
            "buffer" : 0,
            "byteLength" : 159928,
            "byteOffset" : 542320,
            "target" : 34962
        },
        {
            "buffer" : 0,
            "byteLength" : 159928,
            "byteOffset" : 702248,
            "target" : 34962
        },
        {
            "buffer" : 0,
            "byteLength" : 239892,
            "byteOffset" : 862176,
            "target" : 34962
        },
        {
            "buffer" : 0,
            "byteLength" : 229332,
            "byteOffset" : 1102068,
            "target" : 34963
        },
        {
            "buffer" : 0,
            "byteLength" : 19968,
            "byteOffset" : 1331400,
            "target" : 34962
        },
        {
            "buffer" : 0,
            "byteLength" : 13312,
            "byteOffset" : 1351368,
            "target" : 34962
        },
        {
            "buffer" : 0,
            "byteLength" : 19968,
            "byteOffset" : 1364680,
            "target" : 34962
        },
        {
            "buffer" : 0,
            "byteLength" : 19428,
            "byteOffset" : 1384648,
            "target" : 34963
        },
        {
            "buffer" : 0,
            "byteLength" : 239892,
            "byteOffset" : 1404076,
            "target" : 34962
        },
        {
            "buffer" : 0,
            "byteLength" : 159928,
            "byteOffset" : 1643968,
            "target" : 34962
        },
        {
            "buffer" : 0,
            "byteLength" : 159928,
            "byteOffset" : 1803896,
            "target" : 34962
        },
        {
            "buffer" : 0,
            "byteLength" : 239892,
            "byteOffset" : 1963824,
            "target" : 34962
        },
        {
            "buffer" : 0,
            "byteLength" : 229332,
            "byteOffset" : 2203716,
            "target" : 34963
        }
    ],
    "buffers" : [
        {
            "byteLength" : 2433048,
            "uri" : "data:application/octet-stream;base64,"
        }
    ]
}
